<svg
  xmlns="http://www.w3.org/2000/svg"
  viewBox="0 0 256 256"
  width="256"
  height="256"
>
  <rect width="256" height="256" fill="none" />
  <g fill="#38B2A0">
    <rect x="32" y="32" width="16" height="16" />
    <rect x="32" y="64" width="16" height="16" />
    <rect x="32" y="96" width="16" height="16" />
    <rect x="32" y="128" width="16" height="16" />
    <rect x="32" y="160" width="16" height="16" />
    <rect x="64" y="32" width="16" height="16" />
    <rect x="64" y="64" width="16" height="16" />
    <rect x="64" y="128" width="16" height="16" />
    <rect x="96" y="32" width="16" height="16" />
    <rect x="96" y="128" width="16" height="16" />
    <rect x="128" y="32" width="16" height="16" />
    <rect x="128" y="64" width="16" height="16" />
    <rect x="128" y="96" width="16" height="16" />
    <rect x="128" y="128" width="16" height="16" />
    <rect x="160" y="32" width="16" height="16" />
    <rect x="160" y="64" width="16" height="16" />
    <rect x="192" y="32" width="16" height="16" />
    <rect x="192" y="96" width="16" height="16" />
    <rect x="224" y="32" width="16" height="16" />
  </g>
</svg>
